<svg xmlns="http://www.w3.org/2000/svg" width="1600" height="900" viewBox="0 0 1600 900">
  <rect width="1600" height="900" fill="#f8f2ff"/>
  <rect x="0" y="0" width="1600" height="900" fill="url(#g)"/>
  <circle cx="1230" cy="220" r="170" fill="#e8d7ff"/>
  <rect x="220" y="470" width="440" height="220" rx="40" fill="#8c5eff"/>
  <rect x="280" y="360" width="320" height="180" rx="34" fill="#5c2fd1"/>
  <path d="M370 300c0-80 60-140 140-140s140 60 140 140" stroke="#2f176c" stroke-width="26" fill="none" stroke-linecap="round"/>
  <rect x="840" y="300" width="360" height="360" rx="40" fill="#ffffff"/>
  <rect x="890" y="350" width="260" height="250" rx="22" fill="#f1e1ff"/>
  <circle cx="1020" cy="360" r="54" fill="#d8b6ff"/>
  <path d="M900 620c70-70 180-90 250-70" stroke="#8c5eff" stroke-width="20" fill="none" stroke-linecap="round"/>
  <text x="260" y="220" font-family="Poppins, Arial, sans-serif" font-size="54" font-weight="700" fill="#4b1586">Hair Coloring</text>
  <text x="260" y="280" font-family="Poppins, Arial, sans-serif" font-size="28" fill="#5f3d8f">Bold color, soft finish, confident look</text>
  <defs>
    <linearGradient id="g" x1="0" y1="0" x2="1600" y2="900" gradientUnits="userSpaceOnUse">
      <stop offset="0%" stop-color="#fdf7ff"/>
      <stop offset="100%" stop-color="#e8d7ff"/>
    </linearGradient>
  </defs>
</svg>